<svg xmlns="http://www.w3.org/2000/svg" version="1.1" viewBox="0 0 100 125">
  <path d="M57.041,68.077L43.288,81.831c-6.919,6.919-18.157,6.951-25.117,0.097l-0.001,0.001c-0.016-0.016-0.032-0.033-0.048-0.05 c-0.016-0.016-0.033-0.032-0.05-0.048c0,0,0,0,0,0l0.001-0.001c-6.854-6.96-6.823-18.198,0.097-25.117l15.156-15.156  c6.919-6.919,18.157-6.951,25.117-0.097l0.001-0.001c0.016,0.016,0.032,0.033,0.048,0.049c0.016,0.016,0.033,0.032,0.05,0.049 l-0.001,0.001c0.832,0.845,1.563,1.752,2.192,2.707l-4.118,4.118c-1.174,1.174-2.962,1.363-4.338,0.575 c-0.181-0.228-0.375-0.448-0.584-0.66c-3.21-3.152-8.385-3.136-11.573,0.052L24.963,63.506c-3.19,3.19-3.205,8.368-0.048,11.578  c3.21,3.157,8.389,3.142,11.578-0.048l8.615-8.615C48.885,68.059,53.022,68.61,57.041,68.077z M81.831,18.071l-0.001,0.001 c-6.96-6.854-18.198-6.823-25.117,0.097L42.959,31.923c4.02-0.533,8.157,0.018,11.933,1.655l8.615-8.615  c3.19-3.19,8.368-3.205,11.578-0.048c3.157,3.21,3.142,8.389-0.048,11.578L59.881,51.65c-3.188,3.188-8.363,3.204-11.573,0.052 c-0.208-0.212-0.403-0.432-0.584-0.66c-1.376-0.788-3.164-0.599-4.338,0.575l-4.118,4.118c0.629,0.955,1.36,1.863,2.192,2.707 l-0.001,0.001c0.016,0.016,0.033,0.032,0.05,0.049c0.016,0.016,0.032,0.033,0.048,0.049l0.001-0.001 c6.96,6.854,18.198,6.823,25.117-0.097l15.156-15.156c6.919-6.919,6.951-18.157,0.097-25.117l0.001-0.001l0,0 c-0.016-0.016-0.033-0.032-0.05-0.048C81.863,18.104,81.847,18.088,81.831,18.071z"/>
</svg>