<svg viewBox="0 0 197 83">
    <title>Shell logo</title>
    <g transform="translate(-86.000000, -34.000000)">
        <path d="M141.41,58.46 L143.61,58.46 C143.389999,54.059978 142.546674,50.3383486 141.08,47.295 C139.613326,44.2516515 137.651679,41.7950094 135.195,39.925 C132.738321,38.0549907 129.87835,36.6983376 126.615,35.855 C123.35165,35.0116625 119.776686,34.59 115.89,34.59 C112.736651,34.59 109.565016,34.9199967 106.375,35.58 C103.184984,36.2400033 100.30668,37.3399923 97.74,38.88 C95.1733205,40.4200077 93.0833414,42.4916537 91.47,45.095 C89.8566586,47.6983464 89.05,50.9433139 89.05,54.83 C89.05,58.6433524 89.8199923,61.7416548 91.36,64.125 C92.9000077,66.5083453 94.9349874,68.4149929 97.465,69.845 C99.9950127,71.2750072 102.836651,72.3933293 105.99,73.2 C109.143349,74.0066707 112.296651,74.776663 115.45,75.51 C118.456682,76.243337 121.59165,76.9583299 124.855,77.655 C128.11835,78.3516702 131.08832,79.3783265 133.765,80.735 C136.44168,82.0916735 138.641658,83.9249885 140.365,86.235 C142.088342,88.5450115 142.95,91.6799802 142.95,95.64 C142.95,99.0133502 142.198341,101.909988 140.695,104.33 C139.191659,106.750012 137.230012,108.729992 134.81,110.27 C132.389988,111.810008 129.658349,112.92833 126.615,113.625 C123.571651,114.32167 120.510015,114.67 117.43,114.67 C113.249979,114.67 109.418351,114.211671 105.935,113.295 C102.451649,112.378329 99.4450126,110.893344 96.915,108.84 C94.3849874,106.786656 92.4233403,104.12835 91.03,100.865 C89.6366597,97.6016503 88.94,93.6233568 88.94,88.93 L86.74,88.93 C86.6666663,93.9166916 87.3816592,98.1699824 88.885,101.69 C90.3883409,105.210018 92.5149862,108.088322 95.265,110.325 C98.0150138,112.561678 101.278314,114.193328 105.055,115.22 C108.831686,116.246672 112.956644,116.76 117.43,116.76 C120.80335,116.76 124.139983,116.375004 127.44,115.605 C130.740016,114.834996 133.709987,113.588342 136.35,111.865 C138.990013,110.141658 141.116659,107.960013 142.73,105.32 C144.343341,102.679987 145.15,99.4900187 145.15,95.75 C145.15,91.6433128 144.435007,88.3800121 143.005,85.96 C141.574993,83.5399879 139.650012,81.596674 137.23,80.13 C134.809988,78.663326 131.96835,77.4900044 128.705,76.61 C125.44165,75.7299956 121.976685,74.8133381 118.31,73.86 C114.93665,73.0533293 111.636683,72.283337 108.41,71.55 C105.183317,70.816663 102.305013,69.7900066 99.775,68.47 C97.2449874,67.1499934 95.1916746,65.4266773 93.615,63.3 C92.0383255,61.1733227 91.25,58.3500176 91.25,54.83 C91.25,51.3099824 92.0199923,48.3950115 93.56,46.085 C95.1000077,43.7749884 97.0616548,41.9233403 99.445,40.53 C101.828345,39.1366597 104.486652,38.1650027 107.42,37.615 C110.353348,37.0649973 113.176653,36.79 115.89,36.79 C119.410018,36.79 122.709985,37.156663 125.79,37.89 C128.870015,38.623337 131.528322,39.851658 133.765,41.575 C136.001678,43.298342 137.798327,45.5349863 139.155,48.285 C140.511673,51.0350137 141.263333,54.4266465 141.41,58.46 L141.41,58.46 Z M156.26,36.46 L156.26,115 L158.46,115 L158.46,82.99 C158.46,79.8366509 158.899996,76.8300143 159.78,73.97 C160.660004,71.1099857 161.961658,68.5983442 163.685,66.435 C165.408342,64.2716559 167.55332,62.5483397 170.12,61.265 C172.686679,59.9816603 175.65665,59.34 179.03,59.34 C181.450012,59.34 183.741656,59.6883299 185.905,60.385 C188.068344,61.0816701 189.974992,62.1816592 191.625,63.685 C193.275008,65.1883409 194.576662,67.0949884 195.53,69.405 C196.483338,71.7150115 196.96,74.5199835 196.96,77.82 L196.96,115 L199.16,115 L199.16,77.49 C199.16,74.1899835 198.665005,71.2750126 197.675,68.745 C196.684995,66.2149874 195.291676,64.088342 193.495,62.365 C191.698324,60.6416581 189.571679,59.3400044 187.115,58.46 C184.658321,57.5799956 181.963348,57.14 179.03,57.14 C176.243319,57.14 173.713345,57.5249961 171.44,58.295 C169.166655,59.0650039 167.168342,60.1466597 165.445,61.54 C163.721658,62.9333403 162.291672,64.5466575 161.155,66.38 C160.018328,68.2133425 159.193336,70.229989 158.68,72.43 L158.46,72.43 L158.46,36.46 L156.26,36.46 Z M210.16,87.17 L257.46,87.17 C257.606667,83.2833139 257.221671,79.5433513 256.305,75.95 C255.388329,72.3566487 253.921677,69.1666806 251.905,66.38 C249.888323,63.5933194 247.285016,61.3566751 244.095,59.67 C240.904984,57.9833249 237.110022,57.14 232.71,57.14 C229.556651,57.14 226.476682,57.7999934 223.47,59.12 C220.463318,60.4400066 217.823345,62.3649874 215.55,64.895 C213.276655,67.4250126 211.44334,70.523315 210.05,74.19 C208.65666,77.856685 207.96,82.0366432 207.96,86.73 C207.96,90.9100209 208.436662,94.8149818 209.39,98.445 C210.343338,102.075018 211.80999,105.22832 213.79,107.905 C215.77001,110.58168 218.318318,112.653326 221.435,114.12 C224.551682,115.586674 228.309978,116.283334 232.71,116.21 C239.163366,116.21 244.589978,114.395018 248.99,110.765 C253.390022,107.134982 255.993329,102.020033 256.8,95.42 L254.6,95.42 C253.646662,101.653364 251.208353,106.328318 247.285,109.445 C243.361647,112.561682 238.43003,114.12 232.49,114.12 C228.456646,114.12 225.046681,113.42334 222.26,112.03 C219.473319,110.63666 217.200009,108.730012 215.44,106.31 C213.679991,103.889988 212.378338,101.04835 211.535,97.785 C210.691662,94.5216504 210.233334,90.9833524 210.16,87.17 L210.16,87.17 Z M255.26,84.97 L210.16,84.97 C210.380001,81.0099802 211.113327,77.4533491 212.36,74.3 C213.606673,71.1466509 215.238323,68.4516778 217.255,66.215 C219.271677,63.9783221 221.61832,62.2733392 224.295,61.1 C226.97168,59.9266608 229.849985,59.34 232.93,59.34 C236.596685,59.34 239.823319,60.0183266 242.61,61.375 C245.396681,62.7316735 247.724991,64.5833216 249.595,66.93 C251.465009,69.2766784 252.876662,72.0083178 253.83,75.125 C254.783338,78.2416822 255.26,81.5233161 255.26,84.97 L255.26,84.97 Z M266.26,36.46 L266.26,115 L268.46,115 L268.46,36.46 L266.26,36.46 Z M280.56,36.46 L280.56,115 L282.76,115 L282.76,36.46 L280.56,36.46 Z"></path>
    </g>
</svg>
