<svg xmlns="http://www.w3.org/2000/svg" viewBox="0 0 100 125"><path d="M57.04 68.077L43.29 81.83c-6.92 6.92-18.157 6.952-25.117.098-.016-.015-.032-.032-.048-.05l-.05-.047c-6.853-6.96-6.822-18.198.098-25.117l15.156-15.156c6.92-6.92 18.157-6.95 25.117-.097l.05.048.05.05h-.002c.833.845 1.564 1.752 2.193 2.707l-4.118 4.118c-1.174 1.174-2.962 1.363-4.338.575-.18-.228-.375-.448-.584-.66-3.21-3.152-8.385-3.136-11.573.052L24.963 63.506c-3.19 3.19-3.205 8.368-.048 11.578 3.21 3.157 8.39 3.142 11.578-.048l8.615-8.615c3.777 1.64 7.914 2.19 11.933 1.657zM81.83 18.07v.002c-6.96-6.854-18.198-6.823-25.117.097L42.96 31.922c4.02-.533 8.156.018 11.932 1.655l8.615-8.615c3.19-3.19 8.368-3.205 11.578-.048 3.157 3.21 3.142 8.39-.048 11.578L59.88 51.65c-3.187 3.188-8.362 3.204-11.572.052-.208-.212-.403-.432-.584-.66-1.376-.788-3.164-.6-4.338.575l-4.118 4.118c.63.955 1.36 1.863 2.192 2.707.015.017.032.033.05.05l.047.05v-.002c6.96 6.854 18.2 6.823 25.118-.097L81.83 43.287c6.92-6.92 6.952-18.157.098-25.117-.015-.017-.032-.033-.05-.05l-.047-.05z"/></svg>